<?xml version="1.0" encoding="utf-8"?>
<!-- Generator: Adobe Illustrator 14.0.0, SVG Export Plug-In . SVG Version: 6.00 Build 43363)  -->
<!DOCTYPE svg PUBLIC "-//W3C//DTD SVG 1.1//EN" "http://www.w3.org/Graphics/SVG/1.1/DTD/svg11.dtd">
<svg version="1.1" xmlns="http://www.w3.org/2000/svg" xmlns:xlink="http://www.w3.org/1999/xlink" x="0px" y="0px" width="64px"
	 height="64px" viewBox="0 0 64 64" enable-background="new 0 0 64 64" xml:space="preserve">
<g id="Ebene_2">
</g>
<g id="Ebene_1">
	<g>
		<path d="M47.857,47.257C47.818,47.161,44,37.551,44,32v-4c0-4.793-2.831-8.927-6.904-10.848C37.665,16.234,38,15.157,38,14
			c0-3.309-2.691-6-6-6s-6,2.691-6,6c0,1.157,0.334,2.234,0.904,3.152C22.832,19.073,20,23.207,20,28v4
			c0,5.541-3.818,15.161-3.857,15.258c-0.247,0.616-0.171,1.314,0.201,1.863C16.716,49.671,17.336,50,18,50h8c0,3.309,2.691,6,6,6
			s6-2.691,6-6h8c0.664,0,1.284-0.329,1.656-0.879S48.104,47.873,47.857,47.257z M30,14c0-1.103,0.897-2,2-2c1.103,0,2,0.897,2,2
			s-0.897,2-2,2C30.897,16,30,15.103,30,14z M32,52c-1.103,0-2-0.897-2-2h4C34,51.103,33.103,52,32,52z M20.873,46
			C22.102,42.491,24,36.363,24,32v-4c0-4.411,3.589-8,8-8s8,3.589,8,8v4c0,4.363,1.898,10.491,3.127,14H20.873z"/>
		<path d="M32,22c-3.309,0-6,2.691-6,6c0,1.104,0.896,2,2,2s2-0.896,2-2c0-1.103,0.897-2,2-2c1.104,0,2-0.896,2-2S33.104,22,32,22z"
			/>
	</g>
</g>
</svg>
