<svg width="24" height="24" viewBox="0 0 24 24" fill="none" xmlns="http://www.w3.org/2000/svg">
<path fill-rule="evenodd" clip-rule="evenodd" d="M10.0704 3.5C9.56884 3.5 9.10049 3.75065 8.82229 4.16795L7.71289 5.83205C7.43469 6.24935 6.96635 6.5 6.46482 6.5H3C2.17157 6.5 1.5 7.17157 1.5 8V17C1.5 17.8284 2.17157 18.5 3 18.5H6.52191C5.87519 17.4897 5.5 16.2883 5.5 15C5.5 11.4101 8.41015 8.5 12 8.5C15.5899 8.5 18.5 11.4101 18.5 15C18.5 16.2883 18.1248 17.4897 17.4781 18.5H21C21.8284 18.5 22.5 17.8284 22.5 17V8C22.5 7.17157 21.8284 6.5 21 6.5H17.5352C17.0337 6.5 16.5653 6.24935 16.2871 5.83205L15.1777 4.16795C14.8995 3.75065 14.4312 3.5 13.9296 3.5H10.0704ZM16.6904 19.5H21C22.3807 19.5 23.5 18.3807 23.5 17V8C23.5 6.61929 22.3807 5.5 21 5.5H17.5352C17.368 5.5 17.2119 5.41645 17.1192 5.27735L16.0098 3.61325C15.5461 2.91775 14.7655 2.5 13.9296 2.5H10.0704C9.23448 2.5 8.45391 2.91775 7.99024 3.61325L6.88084 5.27735C6.78811 5.41645 6.63199 5.5 6.46482 5.5H3C1.61929 5.5 0.5 6.61929 0.5 8V17C0.5 18.3807 1.61929 19.5 3 19.5H7.30958C8.49192 20.732 10.1566 21.5 12 21.5C13.8434 21.5 15.5081 20.732 16.6904 19.5ZM12 9.5C8.96243 9.5 6.5 11.9624 6.5 15C6.5 16.409 7.02915 17.6932 7.90035 18.6665C8.90816 19.7925 10.3711 20.5 12 20.5C13.6289 20.5 15.0918 19.7925 16.0996 18.6665C16.9708 17.6932 17.5 16.409 17.5 15C17.5 11.9624 15.0376 9.5 12 9.5Z" fill="#293644"/>
</svg>
