<svg width="24" height="24" viewBox="0 0 24 24" fill="none" xmlns="http://www.w3.org/2000/svg">
<path fill-rule="evenodd" clip-rule="evenodd" d="M0.5 5C0.5 3.61929 1.61929 2.5 3 2.5H17C18.3807 2.5 19.5 3.61929 19.5 5V5.5H21C22.3807 5.5 23.5 6.61929 23.5 8V19C23.5 20.3807 22.3807 21.5 21 21.5H16C14.7905 21.5 13.7816 20.6411 13.55 19.5H7C6.72386 19.5 6.5 19.2761 6.5 19C6.5 18.7239 6.72386 18.5 7 18.5H9.5V15.5H3C1.61929 15.5 0.5 14.3807 0.5 13V5ZM10.5 15.5V18.5H13.5V15.5H10.5ZM13.5 14.5V8C13.5 6.61929 14.6193 5.5 16 5.5H18.5V5C18.5 4.17157 17.8284 3.5 17 3.5H3C2.17157 3.5 1.5 4.17157 1.5 5V13C1.5 13.8284 2.17157 14.5 3 14.5H13.5ZM16 6.5C15.1716 6.5 14.5 7.17157 14.5 8V19C14.5 19.8284 15.1716 20.5 16 20.5H21C21.8284 20.5 22.5 19.8284 22.5 19V8C22.5 7.17157 21.8284 6.5 21 6.5H16ZM17.5 10C17.5 9.72386 17.7239 9.5 18 9.5H19C19.2761 9.5 19.5 9.72386 19.5 10C19.5 10.2761 19.2761 10.5 19 10.5H18C17.7239 10.5 17.5 10.2761 17.5 10Z" fill="#293644"/>
</svg>
