<svg width="24" height="24" viewBox="0 0 24 24" fill="none" xmlns="http://www.w3.org/2000/svg">
<path fill-rule="evenodd" clip-rule="evenodd" d="M11 1.75C10.3096 1.75 9.75 2.30964 9.75 3V4.25H14.25V3C14.25 2.30964 13.6904 1.75 13 1.75H11ZM15.75 4.25V3C15.75 1.48122 14.5188 0.25 13 0.25H11C9.48122 0.25 8.25 1.48122 8.25 3V4.25H3C2.58579 4.25 2.25 4.58579 2.25 5C2.25 5.41421 2.58579 5.75 3 5.75H3.32872L5.05691 21.3037C5.21165 22.6964 6.38883 23.75 7.79009 23.75H16.2099C17.6112 23.75 18.7884 22.6964 18.9431 21.3037L20.6713 5.75H21C21.4142 5.75 21.75 5.41421 21.75 5C21.75 4.58579 21.4142 4.25 21 4.25H15.75ZM19.1621 5.75H4.83795L6.54773 21.138C6.61807 21.7711 7.15315 22.25 7.79009 22.25H16.2099C16.8469 22.25 17.3819 21.7711 17.4523 21.138L19.1621 5.75ZM9.46967 11.4697C9.76256 11.1768 10.2374 11.1768 10.5303 11.4697L12 12.9393L13.4697 11.4697C13.7626 11.1768 14.2374 11.1768 14.5303 11.4697C14.8232 11.7626 14.8232 12.2374 14.5303 12.5303L13.0607 14L14.5303 15.4697C14.8232 15.7626 14.8232 16.2374 14.5303 16.5303C14.2374 16.8232 13.7626 16.8232 13.4697 16.5303L12 15.0607L10.5303 16.5303C10.2374 16.8232 9.76256 16.8232 9.46967 16.5303C9.17678 16.2374 9.17678 15.7626 9.46967 15.4697L10.9393 14L9.46967 12.5303C9.17678 12.2374 9.17678 11.7626 9.46967 11.4697Z" fill="#293644"/>
</svg>
