<?xml version="1.0" encoding="utf-8"?>
<!-- Generator: Adobe Illustrator 14.0.0, SVG Export Plug-In . SVG Version: 6.00 Build 43363)  -->
<!DOCTYPE svg PUBLIC "-//W3C//DTD SVG 1.1//EN" "http://www.w3.org/Graphics/SVG/1.1/DTD/svg11.dtd" [
	<!ENTITY ns_extend "http://ns.adobe.com/Extensibility/1.0/">
	<!ENTITY ns_ai "http://ns.adobe.com/AdobeIllustrator/10.0/">
	<!ENTITY ns_graphs "http://ns.adobe.com/Graphs/1.0/">
	<!ENTITY ns_vars "http://ns.adobe.com/Variables/1.0/">
	<!ENTITY ns_imrep "http://ns.adobe.com/ImageReplacement/1.0/">
	<!ENTITY ns_sfw "http://ns.adobe.com/SaveForWeb/1.0/">
	<!ENTITY ns_custom "http://ns.adobe.com/GenericCustomNamespace/1.0/">
	<!ENTITY ns_adobe_xpath "http://ns.adobe.com/XPath/1.0/">
]>
<svg version="1.1" xmlns:x="&ns_extend;" xmlns:i="&ns_ai;" xmlns:graph="&ns_graphs;"
	 xmlns="http://www.w3.org/2000/svg" xmlns:xlink="http://www.w3.org/1999/xlink" x="0px" y="0px" width="64px" height="64px"
	 viewBox="0 0 64 64" enable-background="new 0 0 64 64" xml:space="preserve">
<metadata>
	<sfw  xmlns="&ns_sfw;">
		<slices></slices>
		<sliceSourceBounds  height="16384" width="16389" x="-8165" y="-8160" bottomLeftOrigin="true"></sliceSourceBounds>
	</sfw>
</metadata>
<g id="Ebene_2">
</g>
<g id="Ebene_1">
	<g>
		<path d="M46,14H18c-1.104,0-2,0.896-2,2v18c0,1.104,0.896,2,2,2h28c1.104,0,2-0.896,2-2V16C48,14.896,47.104,14,46,14z M44,32H20
			V18h24V32z"/>
		<path d="M57.923,53.45L54,39.721V10c0-1.104-0.896-2-2-2H12c-1.104,0-2,0.896-2,2v29.721L6.077,53.45
			c-0.173,0.604-0.052,1.253,0.326,1.754S7.373,56,8,56h48c0.628,0,1.219-0.295,1.597-0.796S58.096,54.054,57.923,53.45z M14,12h36
			v26H14V12z M10.651,52l2.857-10h36.982l2.857,10H10.651z"/>
		<path d="M36,46h-8c-1.104,0-2,0.896-2,2s0.896,2,2,2h8c1.104,0,2-0.896,2-2S37.104,46,36,46z"/>
	</g>
</g>
</svg>
