<svg  width="48" height="48" xmlns="http://www.w3.org/2000/svg" xmlns:xlink="http://www.w3.org/1999/xlink" viewBox="0 0 48 48"><defs><style>.a,.b,.d,.g{fill:none;}.b{stroke:#fff;stroke-width:2px;}.b,.g{stroke-miterlimit:10;}.c{fill:#eaeaea;}.d,.g{stroke:#606060;}.d{stroke-linecap:round;stroke-linejoin:round;}.e{fill:#a8a8a8;}.f{fill:#797979;}.h,.j{fill:#606060;}.i{fill:#f2352f;}.j{opacity:0.5;}.k{clip-path:url(#a);}.l{fill:#3d46a2;}.m{fill:#0085c7;}.n{fill:#2db9e7;}</style><clipPath id="a"><polygon class="a" points="24 25.84 10.55 25.84 9.55 10.84 24 10.84 38.45 10.84 37.45 25.84 24 25.84"/></clipPath></defs><path class="b" d="M24,40.84H7.75a1.74,1.74,0,0,1-1.7-2.14L8.64,28.29l1.91-.45-2-1L7.25,9.53A1.53,1.53,0,0,1,8.77,7.84H39.23a1.53,1.53,0,0,1,1.52,1.69l-1.3,17.31-2,1,1.91.45L42,38.7a1.74,1.74,0,0,1-1.7,2.14Z"/><path class="c" d="M24,40.84H7.75a1.74,1.74,0,0,1-1.7-2.14L8.64,28.29l1.91-.45-2-1L7.25,9.53A1.53,1.53,0,0,1,8.77,7.84H39.23a1.53,1.53,0,0,1,1.52,1.69l-1.3,17.31-2,1,1.91.45L42,38.7a1.74,1.74,0,0,1-1.7,2.14Z"/><polygon class="d" points="24 25.84 10.55 25.84 9.55 10.84 24 10.84 38.45 10.84 37.45 25.84 24 25.84"/><polygon class="e" points="24 35.84 9 35.84 10.59 29.8 24 29.84 37.41 29.8 39 35.84 24 35.84"/><rect class="f" x="9" y="35.84" width="30" height="1"/><line class="g" x1="38" y1="27.84" x2="10" y2="27.84"/><path class="h" d="M26.06,10H23a.65.65,0,0,1-.61-.32l-.2-.52c-.1-.28.2-.55.61-.55h3.4c.4,0,.7.26.62.53l-.16.52A.63.63,0,0,1,26.06,10Z"/><circle class="i" cx="25.5" cy="9.34" r="0.5"/><polygon class="j" points="24 40.84 7 40.84 6 38.84 24 38.84 42 38.84 41 40.84 24 40.84"/><path class="d" d="M24,40.84H7.75a1.74,1.74,0,0,1-1.7-2.14L8.64,28.29l1.91-.45-2-1L7.25,9.53A1.53,1.53,0,0,1,8.77,7.84H39.23a1.53,1.53,0,0,1,1.52,1.69l-1.3,17.31-2,1,1.91.45L42,38.7a1.74,1.74,0,0,1-1.7,2.14Z"/><g class="k"><path class="l" d="M36.27,7.84H11.41a2.54,2.54,0,0,0-2.56,2.29L7.35,29a2.51,2.51,0,0,0,2.56,2.66H38.43A2.52,2.52,0,0,0,41,29.11l-2.16-18.9A2.53,2.53,0,0,0,36.27,7.84Z"/><path class="m" d="M11.41,7.84a2.54,2.54,0,0,0-2.56,2.29L7.59,26C20,26.07,27,17.66,39.74,18.11l-.9-7.9a2.53,2.53,0,0,0-2.57-2.37Z"/><path class="n" d="M38.91,10.86l-.07-.65a2.53,2.53,0,0,0-2.57-2.37H11.41a2.54,2.54,0,0,0-2.56,2.29l-.7,8.8C25.36,18,22.68,12.06,38.91,10.86Z"/></g></svg>