<svg width="24" height="24" viewBox="0 0 24 24" fill="none" xmlns="http://www.w3.org/2000/svg">
<path fill-rule="evenodd" clip-rule="evenodd" d="M0.5 5C0.5 3.61929 1.61929 2.5 3 2.5H21C22.3807 2.5 23.5 3.61929 23.5 5V15C23.5 16.3807 22.3807 17.5 21 17.5H12.5V20.5H16C16.2761 20.5 16.5 20.7239 16.5 21C16.5 21.2761 16.2761 21.5 16 21.5H8C7.72386 21.5 7.5 21.2761 7.5 21C7.5 20.7239 7.72386 20.5 8 20.5H11.5V17.5H3C1.61929 17.5 0.5 16.3807 0.5 15V5ZM3 3.5C2.17157 3.5 1.5 4.17157 1.5 5V15C1.5 15.8284 2.17157 16.5 3 16.5H21C21.8284 16.5 22.5 15.8284 22.5 15V5C22.5 4.17157 21.8284 3.5 21 3.5H3Z" fill="#293644"/>
</svg>
