<svg width="24" height="24" viewBox="0 0 24 24" fill="none" xmlns="http://www.w3.org/2000/svg">
<path fill-rule="evenodd" clip-rule="evenodd" d="M4.84189 2.52567C5.10386 2.43835 5.38702 2.57993 5.47434 2.8419L7.36038 8.50001H16.6396L18.5257 2.8419C18.613 2.57993 18.8961 2.43835 19.1581 2.52567C19.4201 2.613 19.5617 2.89616 19.4743 3.15813L17.6937 8.50001H17.9987C18.7865 8.50001 19.5282 8.87138 20.0003 9.50216L22.8888 13.3622C23.2696 13.8009 23.5 14.3735 23.5 15V19C23.5 20.3807 22.3807 21.5 21 21.5H3C1.61929 21.5 0.5 20.3807 0.5 19V15C0.5 14.3735 0.730433 13.8009 1.11116 13.3622L3.99973 9.50215C4.47176 8.87138 5.2135 8.50001 6.00134 8.50001H6.30629L4.52566 3.15813C4.43833 2.89616 4.57991 2.613 4.84189 2.52567ZM3.00535 12.5H20.9947L19.1996 10.1013C18.9164 9.72283 18.4714 9.50001 17.9987 9.50001H6.00134C5.52864 9.50001 5.08359 9.72283 4.80038 10.1013L3.00535 12.5ZM3 13.5C2.17157 13.5 1.5 14.1716 1.5 15V19C1.5 19.8284 2.17157 20.5 3 20.5H21C21.8284 20.5 22.5 19.8284 22.5 19V15C22.5 14.1716 21.8284 13.5 21 13.5H3ZM4.5 17C4.5 16.7239 4.72386 16.5 5 16.5H6C6.27614 16.5 6.5 16.7239 6.5 17C6.5 17.2762 6.27614 17.5 6 17.5H5C4.72386 17.5 4.5 17.2762 4.5 17ZM9.5 17C9.5 16.7239 9.72386 16.5 10 16.5H11C11.2761 16.5 11.5 16.7239 11.5 17C11.5 17.2762 11.2761 17.5 11 17.5H10C9.72386 17.5 9.5 17.2762 9.5 17Z" fill="#293644"/>
</svg>
