<svg width="24" height="24" viewBox="0 0 24 24" fill="none" xmlns="http://www.w3.org/2000/svg">
<path fill-rule="evenodd" clip-rule="evenodd" d="M3.5 3C3.5 1.61929 4.61929 0.5 6 0.5H18C19.3807 0.5 20.5 1.61929 20.5 3V21C20.5 22.3807 19.3807 23.5 18 23.5H6C4.61929 23.5 3.5 22.3807 3.5 21V3ZM6 1.5C5.17157 1.5 4.5 2.17157 4.5 3V21C4.5 21.8284 5.17157 22.5 6 22.5H18C18.8284 22.5 19.5 21.8284 19.5 21V3C19.5 2.17157 18.8284 1.5 18 1.5H6ZM10.5 19C10.5 18.7239 10.7239 18.5 11 18.5H13C13.2761 18.5 13.5 18.7239 13.5 19C13.5 19.2761 13.2761 19.5 13 19.5H11C10.7239 19.5 10.5 19.2761 10.5 19Z" fill="#293644"/>
</svg>
