<svg width="24" height="24" viewBox="0 0 24 24" fill="none" xmlns="http://www.w3.org/2000/svg">
<path fill-rule="evenodd" clip-rule="evenodd" d="M3 6.5C2.17157 6.5 1.5 7.17157 1.5 8V16C1.5 16.8284 2.17157 17.5 3 17.5H16C16.8284 17.5 17.5 16.8284 17.5 16V8C17.5 7.17157 16.8284 6.5 16 6.5H3ZM0.5 8C0.5 6.61929 1.61929 5.5 3 5.5H16C17.3807 5.5 18.5 6.61929 18.5 8V9.95969L21.063 7.90932C22.0451 7.12361 23.5 7.82287 23.5 9.08062V14.9194C23.5 16.1771 22.0451 16.8764 21.063 16.0907L18.5 14.0403V16C18.5 17.3807 17.3807 18.5 16 18.5H3C1.61929 18.5 0.5 17.3807 0.5 16V8ZM18.5 12.7597L21.6877 15.3098C22.015 15.5717 22.5 15.3386 22.5 14.9194V9.08062C22.5 8.66137 22.015 8.42828 21.6877 8.69019L18.5 11.2403V12.7597Z" fill="#293644"/>
</svg>
