<svg width="24" height="24" viewBox="0 0 24 24" fill="none" xmlns="http://www.w3.org/2000/svg">
<path fill-rule="evenodd" clip-rule="evenodd" d="M12 1.5C7.30558 1.5 3.5 5.30558 3.5 10C3.5 12.8288 4.88139 15.335 7.00858 16.8809C8.41009 17.8994 10.1342 18.5 12 18.5C13.8658 18.5 15.5899 17.8994 16.9914 16.8809C19.1186 15.335 20.5 12.8288 20.5 10C20.5 5.30558 16.6944 1.5 12 1.5ZM2.5 10C2.5 4.75329 6.75329 0.5 12 0.5C17.2467 0.5 21.5 4.75329 21.5 10C21.5 12.953 20.1522 15.5912 18.0401 17.333L19.9393 19.2322C21.5142 20.8071 20.3988 23.5 18.1716 23.5H5.82843C3.60116 23.5 2.48575 20.8071 4.06066 19.2322L5.95994 17.333C3.84776 15.5912 2.5 12.953 2.5 10ZM6.7731 17.934L4.76777 19.9393C3.82282 20.8843 4.49207 22.5 5.82843 22.5H18.1716C19.5079 22.5 20.1772 20.8843 19.2322 19.9393L17.2269 17.934C15.7274 18.9238 13.9304 19.5 12 19.5C10.0696 19.5 8.27262 18.9238 6.7731 17.934ZM12 5.5C9.51472 5.5 7.5 7.51472 7.5 10C7.5 10.2761 7.27614 10.5 7 10.5C6.72386 10.5 6.5 10.2761 6.5 10C6.5 6.96243 8.96243 4.5 12 4.5C12.2761 4.5 12.5 4.72386 12.5 5C12.5 5.27614 12.2761 5.5 12 5.5ZM12 9.5C11.7239 9.5 11.5 9.72386 11.5 10C11.5 10.2761 11.7239 10.5 12 10.5C12.2761 10.5 12.5 10.2761 12.5 10C12.5 9.72386 12.2761 9.5 12 9.5ZM10.5 10C10.5 9.17157 11.1716 8.5 12 8.5C12.8284 8.5 13.5 9.17157 13.5 10C13.5 10.8284 12.8284 11.5 12 11.5C11.1716 11.5 10.5 10.8284 10.5 10Z" fill="#293644"/>
</svg>
