<svg  width="48" height="48" xmlns="http://www.w3.org/2000/svg" viewBox="0 0 48 48"><defs><style>.a,.c{fill:none;}.a{stroke:#fff;stroke-width:2px;}.a,.b,.c,.d{stroke-miterlimit:10;}.b{fill:#bfbfbf;}.b,.c,.d{stroke:#606060;}.c{stroke-width:0.5px;}.d{fill:#eaeaea;}.e{fill:#3d46a2;}.f{fill:#a8a8a8;}.g{fill:#797979;}.h{fill:#0085c7;}.i{fill:#2db9e7;}</style></defs><path class="a" d="M38.17,39.38l-1.51-5.59a1.16,1.16,0,0,0-1.12-.86H29.41c1.14-.53,1.83-1.21,1.83-2,0-1.57-1.26-2.58-3.19-3.13h7.81A2.16,2.16,0,0,0,38,25.57L36.2,8.93a2.16,2.16,0,0,0-2.13-2.09H13.39a2.15,2.15,0,0,0-2.13,2L10,25.5a2.15,2.15,0,0,0,2.13,2.34h7.44c-1.79.55-2.87,1.56-2.87,3.13,0,.75.69,1.43,1.82,2H12.18a1.17,1.17,0,0,0-1.13.88L9.64,39.4a1.16,1.16,0,0,0,1.13,1.44H37.05A1.16,1.16,0,0,0,38.17,39.38Z"/><ellipse class="b" cx="24" cy="30.34" rx="7" ry="3.5"/><ellipse class="c" cx="24" cy="28.41" rx="3" ry="2.56"/><path class="d" d="M34.07,6.84H13.39a2.15,2.15,0,0,0-2.13,2L10,25.5a2.15,2.15,0,0,0,2.13,2.34H35.86A2.16,2.16,0,0,0,38,25.57L36.2,8.93A2.16,2.16,0,0,0,34.07,6.84Z"/><path class="e" d="M32.63,8.42H14.9a1.8,1.8,0,0,0-1.82,1.63L12,23.52a1.78,1.78,0,0,0,1.82,1.9H34.17A1.79,1.79,0,0,0,36,23.59L34.46,10.11A1.81,1.81,0,0,0,32.63,8.42Z"/><path class="d" d="M12.18,32.93H35.54a1.16,1.16,0,0,1,1.12.86l1.51,5.59a1.16,1.16,0,0,1-1.12,1.46H10.77A1.16,1.16,0,0,1,9.64,39.4l1.41-5.59A1.17,1.17,0,0,1,12.18,32.93Z"/><polygon class="f" points="35.58 37.63 11.93 37.63 12.93 33.97 34.58 33.97 35.58 37.63"/><rect class="g" x="11.93" y="37.64" width="23.65" height="1.17"/><path class="h" d="M14.9,8.42a1.8,1.8,0,0,0-1.82,1.63l-.9,11.32c8.82.05,13.82-6,22.92-5.62l-.64-5.64a1.81,1.81,0,0,0-1.83-1.69Z"/><path class="i" d="M34.51,10.57l0-.46a1.81,1.81,0,0,0-1.83-1.69H14.9a1.8,1.8,0,0,0-1.82,1.63l-.5,6.28C24.85,15.65,22.94,11.43,34.51,10.57Z"/><path class="c" d="M32.63,8.42H14.9a1.8,1.8,0,0,0-1.82,1.63L12,23.52a1.78,1.78,0,0,0,1.82,1.9H34.17A1.79,1.79,0,0,0,36,23.59L34.46,10.11A1.81,1.81,0,0,0,32.63,8.42Z"/></svg>