<svg  width="48" height="48" xmlns="http://www.w3.org/2000/svg" viewBox="0 0 48 48"><defs><style>.a,.e{fill:none;}.a{stroke:#fff;stroke-miterlimit:10;stroke-width:2px;}.b{fill:#a8a8a8;}.c{fill:#d5d5d5;}.d{fill:#fff;}.e{stroke:#606060;stroke-linecap:round;stroke-linejoin:round;}.f{fill:#f4f4f4;}</style></defs><path class="a" d="M38.5,36H9.17c-4,0-4-6.06-1-7.07-1-2,0-8.09,6.07-7.08l1-1c-1-3,3-6.07,6.07-4,3-4,9.1-4,11.12,1a5.83,5.83,0,0,1,6.07,6.07C41.53,25.86,44.56,34,38.5,36Z"/><path class="b" d="M38.5,36H9.17c-4,0-4-6.06-1-7.07-1-2,0-8.09,6.07-7.08l1-1c-1-3,3-6.07,6.07-4,3-4,9.1-4,11.12,1a5.83,5.83,0,0,1,6.07,6.07C41.53,25.86,44.56,34,38.5,36Z"/><path class="c" d="M22.32,27.88c-1-5.05-6.07-4-7.08-2-2-1-5.06,0-4,5.06,0,0-3,2.57,0,4.59H21.31S16.25,30.92,22.32,27.88Z"/><path class="c" d="M33.44,21.82c-1-4.05-9.1-5.52-11.12-1.47-3-1-5.06-1-5.06,1,2,0,5.06,2.48,5.06,4.5a4,4,0,0,1,4-2C27.37,20.81,31.42,20.81,33.44,21.82Z"/><path class="d" d="M19.29,29.91c-2-3-5.06,0-4,2,0,0-3,2,0,4h7.08S18.27,35,19.29,29.91Z"/><path class="d" d="M28.39,21.82c-1-3-6.07-1-7.08,2l1,2,2-2h2Z"/><path class="e" d="M38.5,23.84c-3-1-4,0-4,0-1-3-6.06-4.05-8.09,0-3,0-4,1-4,4-3,1-5.06,6.07,0,8.09"/><path class="e" d="M22.32,25.86c-1-4-5.06-5.05-8.09-4"/><path class="c" d="M38.5,32.48c0-3-3-4-4-3-1-2-4-4.05-7.08,0-3,0-6.06,3-3,6.06H36.47S38.5,35.51,38.5,32.48Z"/><path class="f" d="M29.4,36s-3-1-3-3,3-1,3-1,1.89-3.07,4,0c0,0,5.06,0,2,4Z"/><path class="e" d="M38.5,36H9.17c-4,0-4-6.06-1-7.07-1-2,0-8.09,6.07-7.08l1-1c-1-3,3-6.07,6.07-4,3-4,9.1-4,11.12,1a5.83,5.83,0,0,1,6.07,6.07C41.53,25.86,44.56,34,38.5,36Z"/></svg>