<svg  width="48" height="48" xmlns="http://www.w3.org/2000/svg" viewBox="0 0 48 48"><defs><style>.a,.c,.e,.f{fill:none;}.a{stroke:#fff;stroke-width:2px;}.a,.c,.e{stroke-miterlimit:10;}.b{fill:#3d46a2;}.c{stroke:#a8a8a8;stroke-width:1.5px;}.d{opacity:0.33;}.e,.f{stroke:#606060;}.f{stroke-linecap:round;stroke-linejoin:round;}</style></defs><polygon class="a" points="6 13.84 37 8.84 43 13.84 43 38.84 6 38.84 6 13.84"/><polygon class="b" points="6 13.84 37 8.84 43 13.84 43 38.84 6 38.84 6 13.84"/><polyline class="c" points="6 20.78 37 16.84 43 19.84"/><polyline class="c" points="6 28.78 37 25.84 43 27.84"/><polyline class="c" points="6 36.78 37 34.84 43 35.84"/><line class="c" x1="24" y1="10.84" x2="24" y2="18.84"/><line class="c" x1="11" y1="12.84" x2="11" y2="19.84"/><line class="c" x1="31" y1="17.84" x2="31" y2="26.84"/><line class="c" x1="31" y1="34.84" x2="31" y2="38.84"/><line class="c" x1="17" y1="19.84" x2="17" y2="27.84"/><line class="c" x1="17" y1="35.84" x2="17" y2="38.84"/><line class="c" x1="24" y1="26.84" x2="24" y2="35.84"/><line class="c" x1="11" y1="27.84" x2="11" y2="36.84"/><polygon class="d" points="43 13.84 37 8.84 37 38.84 43 38.84 43 13.84"/><line class="e" x1="37" y1="8.84" x2="37" y2="38.84"/><polygon class="f" points="6 13.84 37 8.84 43 13.84 43 38.84 6 38.84 6 13.84"/></svg>