<svg  width="48" height="48" xmlns="http://www.w3.org/2000/svg" viewBox="0 0 48 48"><defs><style>.a,.i{fill:none;}.a{stroke:#fff;stroke-width:2px;}.a,.b,.d,.i{stroke-linejoin:round;}.b,.f{fill:#919191;}.b,.c,.d,.i{stroke:#606060;}.c,.g{fill:#eaeaea;}.c{stroke-miterlimit:10;}.d{fill:#a8a8a8;}.e{fill:#222;}.h{fill:#424242;}.j{fill:#606060;}</style></defs><polygon class="a" points="35.02 21.34 35.02 10.34 34.02 9.34 14.03 9.34 13.03 10.34 13.03 21.34 8.03 26.34 8.03 36.34 10.03 38.34 38.02 38.34 40.02 36.34 40.02 26.34 35.02 21.34"/><polygon class="b" points="40.02 26.34 8.03 26.34 13.03 21.34 35.02 21.34 40.02 26.34"/><polygon class="c" points="35.02 24.34 13.03 24.34 13.03 10.34 14.03 9.34 34.02 9.34 35.02 10.34 35.02 24.34"/><polygon class="d" points="38.02 38.34 10.03 38.34 8.03 36.34 8.03 26.34 40.02 26.34 40.02 36.34 38.02 38.34"/><rect class="e" x="11.02" y="31.34" width="26" height="1"/><rect class="f" x="18.02" y="12.34" width="15" height="1"/><rect class="f" x="15.02" y="15.34" width="18" height="1"/><rect class="f" x="15.02" y="18.34" width="18" height="1"/><rect class="f" x="15.02" y="21.34" width="18" height="1"/><rect x="12.02" y="33.34" width="24" height="2"/><rect class="g" x="11.02" y="28.34" width="26" height="3"/><polygon class="h" points="8.03 36.34 40.02 36.34 38.02 38.34 10.03 38.34 8.03 36.34"/><polygon class="i" points="35.02 21.34 35.02 10.34 34.02 9.34 14.03 9.34 13.03 10.34 13.03 21.34 8.03 26.34 8.03 36.34 10.03 38.34 38.02 38.34 40.02 36.34 40.02 26.34 35.02 21.34"/><circle class="j" cx="13.02" cy="29.84" r="1"/></svg>