<?xml version="1.0" encoding="UTF-8"?><svg version="1.1" viewBox="0 0 64 64" xmlns="http://www.w3.org/2000/svg" xmlns:xlink="http://www.w3.org/1999/xlink"><!--Generated by IJSVG (https://github.com/iconjar/IJSVG)--><path d="M55.177,30.382l-22,-16c-0.609,-0.443 -1.415,-0.505 -2.084,-0.165c-0.671,0.342 -1.093,1.031 -1.093,1.783v13.527l-20.824,-15.145c-0.608,-0.443 -1.414,-0.505 -2.084,-0.165c-0.67,0.342 -1.092,1.031 -1.092,1.783v32c0,0.752 0.422,1.44 1.092,1.782c0.287,0.146 0.598,0.218 0.908,0.218c0.415,0 0.828,-0.129 1.176,-0.383l20.824,-15.144v13.527c0,0.752 0.422,1.44 1.092,1.782c0.287,0.146 0.598,0.218 0.908,0.218c0.415,0 0.828,-0.129 1.177,-0.383l22,-16c0.516,-0.376 0.823,-0.977 0.823,-1.617c0,-0.64 -0.307,-1.241 -0.823,-1.618Zm-45.177,13.69v-24.144l16.6,12.072l-16.6,12.072Zm24,0v-24.144l16.6,12.072l-16.6,12.072Z" fill="#000"></path></svg>