<svg  width="48" height="48" xmlns="http://www.w3.org/2000/svg" xmlns:xlink="http://www.w3.org/1999/xlink" viewBox="0 0 48 48"><defs><style>.a,.b,.p{fill:none;}.b{stroke:#fff;stroke-width:2px;}.b,.p{stroke-miterlimit:10;}.c{clip-path:url(#a);}.d{fill:#25556c;}.e{fill:#2a5f79;}.f{fill:#2f6986;}.g{fill:#357393;}.h{fill:#3a7da0;}.i{fill:#3f87ad;}.j{fill:#4491ba;}.k{fill:#4a9bc7;}.l{fill:#4fa5d4;}.m{fill:#54afe1;}.n{fill:#3a78a0;}.o{fill:#fff;}.p{stroke:#606060;}</style><clipPath id="a"><path class="a" d="M6.9,32.94c0,3.53,7.63,6.4,17,6.4S41,36.47,41,32.94V23c0,3.53-7.63,6.4-17,6.4s-17-2.87-17-6.4Z"/></clipPath></defs><path class="b" d="M24,16.56c-9.42,0-17,2.86-17,6.39v10c0,3.53,7.63,6.4,17,6.4S41,36.47,41,32.94V23C41,19.42,33.37,16.56,24,16.56Z"/><g class="c"><rect class="d" x="0.63" y="21.35" width="5.33" height="21.31"/><rect class="e" x="5.25" y="21.35" width="5.33" height="21.31"/><rect class="f" x="9.87" y="21.35" width="5.33" height="21.31"/><rect class="g" x="14.49" y="21.35" width="5.33" height="21.31"/><rect class="h" x="19.1" y="21.35" width="5.33" height="21.31"/><rect class="i" x="23.72" y="21.35" width="5.33" height="21.31"/><rect class="j" x="28.34" y="21.35" width="5.33" height="21.31"/><rect class="k" x="32.96" y="21.35" width="5.33" height="21.31"/><rect class="l" x="37.58" y="21.35" width="5.33" height="21.31"/><rect class="m" x="42.19" y="21.35" width="5.33" height="21.31"/></g><ellipse class="n" cx="23.95" cy="22.95" rx="17.05" ry="6.39"/><path class="o" d="M35,26.48c-1.74-.78-2.66-1.13-4.39-1.84L31.7,24c-2.71-.28-4.05-.42-6.59-.71a35.07,35.07,0,0,0,2.06,3.14l1.2-.6c1.75.72,2.68,1.09,4.5,1.91C33.77,27.26,34.19,27,35,26.48Z"/><path class="o" d="M17.14,21.52c2.4.33,3.52.48,5.92.79a23.52,23.52,0,0,1-1.25-3.22l-1.07.6c-1.17-.76-1.71-1.15-2.88-1.91-1,.48-1.5.72-2.6,1.21,1.33.77,1.9,1.16,3.14,1.92Z"/><path class="o" d="M26.27,22.81c1.38-.77,2-1.14,3.24-1.88l1.25.55c.35-1.24.5-1.85.81-3.13-2.39.34-3.37.51-5.45.86.41.24.62.35,1.06.58-1.19.75-1.8,1.13-3.18,1.89C24.86,22.14,25.32,22.36,26.27,22.81Z"/><path class="o" d="M21.86,22.82c-1.52.78-2.35,1.17-4.07,1.94l-1.06-.55a40.2,40.2,0,0,1-2.63,3.07c2.78-.33,4.29-.5,7.17-.87l-1.21-.55c1.73-.75,2.56-1.14,4.07-1.92C23.18,23.5,22.73,23.28,21.86,22.82Z"/><path class="p" d="M24,16.56c-9.42,0-17,2.86-17,6.39v10c0,3.53,7.63,6.4,17,6.4S41,36.47,41,32.94V23C41,19.42,33.37,16.56,24,16.56Z"/></svg>