<svg  width="48" height="48" xmlns="http://www.w3.org/2000/svg" viewBox="0 0 48 48"><defs><style>.a,.f,.h,.i{fill:none;}.a{stroke:#fff;stroke-width:2px;}.a,.i{stroke-linejoin:round;}.b{fill:#d5d5d5;}.c{fill:#a8a8a8;}.d,.g{fill:#606060;}.e{fill:#cd3c3a;}.f,.h,.i{stroke:#606060;}.f,.h{stroke-miterlimit:10;}.f{stroke-width:0.5px;}.g{opacity:0.5;}</style></defs><polygon class="a" points="16.4 4.84 12.6 8.64 12.6 41.84 13 42.84 35 42.84 35.4 41.84 35.4 8.64 31.6 4.84 16.4 4.84"/><polygon class="b" points="16.4 4.84 12.6 8.64 12.6 42.84 35.4 42.84 35.4 8.64 31.6 4.84 16.4 4.84"/><rect class="c" x="15.83" y="12.82" width="16.35" height="3.05"/><path class="d" d="M31.8,13.19v2.3H16.2v-2.3H31.8m.75-.75H15.45v3.8h17.1v-3.8Z"/><rect class="c" x="15.83" y="18.52" width="16.35" height="3.05"/><path class="d" d="M31.8,18.89v2.3H16.2v-2.3H31.8m.75-.75H15.45v3.8h17.1v-3.8Z"/><rect class="c" x="21.53" y="25.17" width="10.65" height="3.05"/><path class="d" d="M31.8,25.54v2.3H21.9v-2.3h9.9m.75-.75H21.15v3.8h11.4v-3.8Z"/><circle class="e" cx="17.35" cy="26.69" r="1.42"/><line class="f" x1="20.2" y1="37.14" x2="27.8" y2="37.14"/><line class="f" x1="19.25" y1="39.04" x2="28.75" y2="39.04"/><line class="f" x1="20.2" y1="40.94" x2="27.8" y2="40.94"/><polygon class="g" points="31.6 4.84 16.4 4.84 12.6 8.64 35.4 8.64 31.6 4.84"/><line class="h" x1="12.6" y1="8.64" x2="35.4" y2="8.64"/><polygon class="i" points="16.4 4.84 12.6 8.64 12.6 41.84 13 42.84 35 42.84 35.4 41.84 35.4 8.64 31.6 4.84 16.4 4.84"/></svg>