<svg  width="48" height="48" xmlns="http://www.w3.org/2000/svg" viewBox="0 0 48 48"><defs><style>.a,.f{fill:none;}.a{stroke:#fff;stroke-width:2px;}.a,.b,.f{stroke-miterlimit:10;}.b{fill:#eaeaea;}.b,.f{stroke:#606060;}.c,.d{fill:#606060;}.c{opacity:0.5;}.e{fill:#919191;}.g{fill:#00f800;}.h{fill:#f2352f;}</style></defs><path class="a" d="M23.37,35.93h16c.25,0,3.24-1,3.24-1a1.25,1.25,0,0,0,.55-1V26.25a1.25,1.25,0,0,0-.18-.65L35.79,14a1.22,1.22,0,0,0-1.06-.59H13.08A1.25,1.25,0,0,0,12,14L4.89,25.6a1.26,1.26,0,0,0-.19.65v7.63a1.24,1.24,0,0,0,.56,1,18,18,0,0,0,2.17,1Z"/><path class="b" d="M23.37,35.93h16c.25,0,3.24-1,3.24-1a1.25,1.25,0,0,0,.55-1V26.25a1.25,1.25,0,0,0-.18-.65L35.79,14a1.22,1.22,0,0,0-1.06-.59H13.08A1.25,1.25,0,0,0,12,14L4.89,25.6a1.26,1.26,0,0,0-.19.65v7.63a1.24,1.24,0,0,0,.56,1,18,18,0,0,0,2.17,1Z"/><polygon class="c" points="4.7 25.9 43.11 25.9 43.11 34.54 39.27 35.5 7.58 35.5 4.7 34.54 4.7 25.9"/><path class="d" d="M42.45,26.4a.16.16,0,0,1,.16.16V31a.16.16,0,0,1-.16.16H31.29a.16.16,0,0,1-.16-.16V26.56a.16.16,0,0,1,.16-.16H42.45m0-.5H31.29a.66.66,0,0,0-.66.66V31a.65.65,0,0,0,.66.66H42.45a.65.65,0,0,0,.66-.66V26.56a.66.66,0,0,0-.66-.66Z"/><rect class="e" x="31.84" y="27.11" width="10.06" height="2.38" rx="0.41"/><path class="d" d="M41.49,27.36a.16.16,0,0,1,.16.16v1.56a.16.16,0,0,1-.16.16H32.25a.16.16,0,0,1-.16-.16V27.52a.16.16,0,0,1,.16-.16h9.24m0-.5H32.25a.66.66,0,0,0-.66.66v1.56a.65.65,0,0,0,.66.66h9.24a.66.66,0,0,0,.66-.66V27.52a.67.67,0,0,0-.66-.66Z"/><line class="f" x1="4.7" y1="25.9" x2="43.11" y2="25.9"/><rect x="7.58" y="27.82" width="2.88" height="1.92"/><rect x="7.58" y="30.7" width="2.88" height="1.92"/><rect x="12.38" y="27.82" width="2.88" height="1.92"/><rect x="12.38" y="30.7" width="2.88" height="1.92"/><rect x="17.19" y="27.82" width="2.88" height="1.92"/><rect x="17.19" y="30.7" width="2.88" height="1.92"/><rect x="21.99" y="27.82" width="2.88" height="1.92"/><rect x="21.99" y="30.7" width="2.88" height="1.92"/><circle class="g" cx="28.23" cy="28.06" r="0.72"/><circle class="h" cx="28.23" cy="30.46" r="0.72"/><circle class="g" cx="28.23" cy="32.95" r="0.72"/><path class="d" d="M32,15.06a.67.67,0,0,1,.58.34L36,21.17a1.07,1.07,0,0,1-.92,1.6H12.75a1,1,0,0,1-.92-.53,1.08,1.08,0,0,1,0-1.07l3.38-5.77a.68.68,0,0,1,.58-.34H32m0-.25H15.79a.92.92,0,0,0-.79.46l-3.38,5.78a1.31,1.31,0,0,0,1.13,2H35.06a1.31,1.31,0,0,0,1.14-2l-3.39-5.78a.91.91,0,0,0-.79-.46Z"/><path class="f" d="M23.37,35.93h16c.25,0,3.24-1,3.24-1a1.25,1.25,0,0,0,.55-1V26.25a1.25,1.25,0,0,0-.18-.65L35.79,14a1.22,1.22,0,0,0-1.06-.59H13.08A1.25,1.25,0,0,0,12,14L4.89,25.6a1.26,1.26,0,0,0-.19.65v7.63a1.24,1.24,0,0,0,.56,1,18,18,0,0,0,2.17,1Z"/></svg>