<?xml version="1.0" encoding="UTF-8"?><svg version="1.1" viewBox="0 0 64 64" xmlns="http://www.w3.org/2000/svg" xmlns:xlink="http://www.w3.org/1999/xlink"><!--Generated by IJSVG (https://github.com/iconjar/IJSVG)--><path d="M56,18h-36v-4c0,-0.809 -0.487,-1.538 -1.235,-1.848c-0.747,-0.311 -1.608,-0.139 -2.179,0.434l-10,10c-0.781,0.781 -0.781,2.047 0,2.828l10,10c0.571,0.571 1.433,0.743 2.179,0.434c0.748,-0.31 1.235,-1.039 1.235,-1.848v-4h26v10h-22c-3.309,0 -6,2.691 -6,6c0,3.309 2.691,6 6,6h32c1.104,0 2,-0.896 2,-2v-30c0,-1.104 -0.896,-2 -2,-2Zm-2,30h-30c-1.103,0 -2,-0.897 -2,-2c0,-1.103 0.897,-2 2,-2h24c1.104,0 2,-0.896 2,-2v-14c0,-1.104 -0.896,-2 -2,-2h-30c-1.104,0 -2,0.896 -2,2v1.171l-5.171,-5.171l5.171,-5.171v1.171c0,1.104 0.896,2 2,2h36v26Z" fill="#000"></path></svg>