<svg  width="48" height="48" xmlns="http://www.w3.org/2000/svg" viewBox="0 0 48 48"><defs><style>.a,.h{fill:none;}.a{stroke:#fff;stroke-width:2px;}.a,.b,.d,.e,.h{stroke-linecap:round;}.a,.b,.c,.d,.e,.h{stroke-linejoin:round;}.b{fill:#797979;}.b,.c,.d,.e,.h{stroke:#606060;}.b,.c,.d,.e{stroke-width:0.5px;}.c{fill:#424242;}.d{fill:#0097f0;}.e{fill:#0066b1;}.f{fill:#00f800;}.g{fill:#3a78a0;}</style></defs><path class="a" d="M41,28.84l-1-1-2-4-2.17-.2L35,21.84l-1-14H33v13l-.82,2.48c-2.93-.24-6.25-.48-8.18-.48s-5.25.24-8.18.48L15,20.84v-13H14l-1,14-.83,1.8-2.17.2-2,4-1,1-1,2v3l1,5,2,2h4l3-1H32l3,1h4l2-2,1-5v-3Z"/><path class="b" d="M24,25.84h8l2,2h6l-2-4s-10-1-14-1-14,1-14,1l-2,4h6l2-2Z"/><polygon class="c" points="12.05 23.9 13 21.84 14 7.84 15 7.84 15 20.84 16 23.84 12.05 23.9"/><polygon class="c" points="35.95 23.9 35 21.84 34 7.84 33 7.84 33 20.84 32 23.84 35.95 23.9"/><polygon class="d" points="24 30.84 42 30.84 41 28.84 40 27.84 34 27.84 32 25.84 24 25.84 16 25.84 14 27.84 8 27.84 7 28.84 6 30.84 24 30.84"/><polygon class="e" points="24 30.84 42 30.84 42 33.84 41 38.84 39 40.84 35 40.84 32 39.84 24 39.84 16 39.84 13 40.84 9 40.84 7 38.84 6 33.84 6 30.84 24 30.84"/><polygon class="c" points="24 31.84 40 31.84 40 35.84 38 37.84 24 37.84 10 37.84 8 35.84 8 31.84 24 31.84"/><circle class="f" cx="19.06" cy="34.58" r="0.6"/><circle class="f" cx="17.4" cy="34.58" r="0.6"/><circle class="f" cx="15.66" cy="34.58" r="0.6"/><rect class="g" x="9.06" y="33.83" width="4.94" height="1.51" rx="0.3"/><path class="h" d="M41,28.84l-1-1-2-4-2.17-.2L35,21.84l-1-14H33v13l-.82,2.48c-2.93-.24-6.25-.48-8.18-.48s-5.25.24-8.18.48L15,20.84v-13H14l-1,14-.83,1.8-2.17.2-2,4-1,1-1,2v3l1,5,2,2h4l3-1H32l3,1h4l2-2,1-5v-3Z"/></svg>